<mxfile host="Electron" agent="Mozilla/5.0 (Windows NT 10.0; Win64; x64) AppleWebKit/537.36 (KHTML, like Gecko) draw.io/26.0.9 Chrome/128.0.6613.186 Electron/32.2.5 Safari/537.36" version="26.0.9">
  <diagram name="Page-1" id="VDP-v6SipQ5RF9AnJXJO">
    <mxGraphModel dx="4097" dy="3391" grid="1" gridSize="10" guides="1" tooltips="1" connect="1" arrows="1" fold="1" page="0" pageScale="1" pageWidth="850" pageHeight="1100" math="0" shadow="0">
      <root>
        <mxCell id="0" />
        <mxCell id="1" parent="0" />
        <mxCell id="C2EhszATPsO6lAKU5YwJ-6" style="edgeStyle=orthogonalEdgeStyle;rounded=0;orthogonalLoop=1;jettySize=auto;html=1;exitX=0.5;exitY=1;exitDx=0;exitDy=0;entryX=0.5;entryY=0;entryDx=0;entryDy=0;" edge="1" parent="1" source="sYI8A0zLiOURxTtGvRJm-1" target="sYI8A0zLiOURxTtGvRJm-4">
          <mxGeometry relative="1" as="geometry" />
        </mxCell>
        <mxCell id="C2EhszATPsO6lAKU5YwJ-7" style="edgeStyle=orthogonalEdgeStyle;rounded=0;orthogonalLoop=1;jettySize=auto;html=1;exitX=0.5;exitY=1;exitDx=0;exitDy=0;entryX=0.5;entryY=0;entryDx=0;entryDy=0;" edge="1" parent="1" source="sYI8A0zLiOURxTtGvRJm-1" target="sYI8A0zLiOURxTtGvRJm-2">
          <mxGeometry relative="1" as="geometry" />
        </mxCell>
        <mxCell id="C2EhszATPsO6lAKU5YwJ-8" style="edgeStyle=orthogonalEdgeStyle;rounded=0;orthogonalLoop=1;jettySize=auto;html=1;exitX=0.5;exitY=1;exitDx=0;exitDy=0;entryX=0.5;entryY=0;entryDx=0;entryDy=0;" edge="1" parent="1" source="sYI8A0zLiOURxTtGvRJm-1" target="sYI8A0zLiOURxTtGvRJm-3">
          <mxGeometry relative="1" as="geometry" />
        </mxCell>
        <mxCell id="sYI8A0zLiOURxTtGvRJm-1" value="Main" style="rounded=0;whiteSpace=wrap;html=1;fontSize=30;fixedWidth=0;resizable=1;resizeWidth=0;resizeHeight=0;imageWidth=25;imageHeight=25;" parent="1" vertex="1">
          <mxGeometry x="800" y="-640" width="200" height="120" as="geometry" />
        </mxCell>
        <mxCell id="C2EhszATPsO6lAKU5YwJ-10" style="edgeStyle=orthogonalEdgeStyle;rounded=0;orthogonalLoop=1;jettySize=auto;html=1;exitX=0.5;exitY=1;exitDx=0;exitDy=0;entryX=0.5;entryY=0;entryDx=0;entryDy=0;" edge="1" parent="1" source="sYI8A0zLiOURxTtGvRJm-2" target="sYI8A0zLiOURxTtGvRJm-5">
          <mxGeometry relative="1" as="geometry" />
        </mxCell>
        <mxCell id="sYI8A0zLiOURxTtGvRJm-2" value="CreateTargets" style="rounded=0;whiteSpace=wrap;html=1;fontSize=30;fixedWidth=0;resizable=1;resizeWidth=0;resizeHeight=0;imageWidth=25;imageHeight=25;" parent="1" vertex="1">
          <mxGeometry x="120" y="-440" width="200" height="120" as="geometry" />
        </mxCell>
        <mxCell id="C2EhszATPsO6lAKU5YwJ-9" style="edgeStyle=orthogonalEdgeStyle;rounded=0;orthogonalLoop=1;jettySize=auto;html=1;exitX=0.5;exitY=1;exitDx=0;exitDy=0;entryX=0.5;entryY=0;entryDx=0;entryDy=0;" edge="1" parent="1" source="sYI8A0zLiOURxTtGvRJm-3" target="sYI8A0zLiOURxTtGvRJm-6">
          <mxGeometry relative="1" as="geometry" />
        </mxCell>
        <mxCell id="sYI8A0zLiOURxTtGvRJm-3" value="FillNumbers" style="rounded=0;whiteSpace=wrap;html=1;fontSize=30;fillColor=#dae8fc;strokeColor=#6c8ebf;fixedWidth=0;resizable=1;resizeWidth=0;resizeHeight=0;imageWidth=25;imageHeight=25;" parent="1" vertex="1">
          <mxGeometry x="400" y="-440" width="200" height="120" as="geometry" />
        </mxCell>
        <mxCell id="C2EhszATPsO6lAKU5YwJ-11" style="edgeStyle=orthogonalEdgeStyle;rounded=0;orthogonalLoop=1;jettySize=auto;html=1;exitX=0.5;exitY=1;exitDx=0;exitDy=0;entryX=0.5;entryY=0;entryDx=0;entryDy=0;" edge="1" parent="1" source="sYI8A0zLiOURxTtGvRJm-4" target="sYI8A0zLiOURxTtGvRJm-7">
          <mxGeometry relative="1" as="geometry" />
        </mxCell>
        <mxCell id="C2EhszATPsO6lAKU5YwJ-12" style="edgeStyle=orthogonalEdgeStyle;rounded=0;orthogonalLoop=1;jettySize=auto;html=1;exitX=0.5;exitY=1;exitDx=0;exitDy=0;entryX=0.5;entryY=0;entryDx=0;entryDy=0;" edge="1" parent="1" source="sYI8A0zLiOURxTtGvRJm-4" target="sYI8A0zLiOURxTtGvRJm-12">
          <mxGeometry relative="1" as="geometry" />
        </mxCell>
        <mxCell id="C2EhszATPsO6lAKU5YwJ-13" style="edgeStyle=orthogonalEdgeStyle;rounded=0;orthogonalLoop=1;jettySize=auto;html=1;exitX=0.5;exitY=1;exitDx=0;exitDy=0;" edge="1" parent="1" source="sYI8A0zLiOURxTtGvRJm-4" target="sYI8A0zLiOURxTtGvRJm-13">
          <mxGeometry relative="1" as="geometry" />
        </mxCell>
        <mxCell id="C2EhszATPsO6lAKU5YwJ-14" style="edgeStyle=orthogonalEdgeStyle;rounded=0;orthogonalLoop=1;jettySize=auto;html=1;exitX=0.5;exitY=1;exitDx=0;exitDy=0;entryX=0.5;entryY=0;entryDx=0;entryDy=0;" edge="1" parent="1" source="sYI8A0zLiOURxTtGvRJm-4" target="wHGBHEUg4wIxtBP_qHTT-2">
          <mxGeometry relative="1" as="geometry" />
        </mxCell>
        <mxCell id="C2EhszATPsO6lAKU5YwJ-15" style="edgeStyle=orthogonalEdgeStyle;rounded=0;orthogonalLoop=1;jettySize=auto;html=1;exitX=0.5;exitY=1;exitDx=0;exitDy=0;" edge="1" parent="1" source="sYI8A0zLiOURxTtGvRJm-4" target="wHGBHEUg4wIxtBP_qHTT-6">
          <mxGeometry relative="1" as="geometry" />
        </mxCell>
        <mxCell id="C2EhszATPsO6lAKU5YwJ-16" style="edgeStyle=orthogonalEdgeStyle;rounded=0;orthogonalLoop=1;jettySize=auto;html=1;exitX=0.5;exitY=1;exitDx=0;exitDy=0;entryX=0.5;entryY=0;entryDx=0;entryDy=0;" edge="1" parent="1" source="sYI8A0zLiOURxTtGvRJm-4" target="wHGBHEUg4wIxtBP_qHTT-9">
          <mxGeometry relative="1" as="geometry" />
        </mxCell>
        <mxCell id="C2EhszATPsO6lAKU5YwJ-23" style="edgeStyle=orthogonalEdgeStyle;rounded=0;orthogonalLoop=1;jettySize=auto;html=1;exitX=0.5;exitY=1;exitDx=0;exitDy=0;" edge="1" parent="1" source="sYI8A0zLiOURxTtGvRJm-4" target="wHGBHEUg4wIxtBP_qHTT-13">
          <mxGeometry relative="1" as="geometry" />
        </mxCell>
        <mxCell id="C2EhszATPsO6lAKU5YwJ-24" style="edgeStyle=orthogonalEdgeStyle;rounded=0;orthogonalLoop=1;jettySize=auto;html=1;exitX=0.5;exitY=1;exitDx=0;exitDy=0;entryX=0.5;entryY=0;entryDx=0;entryDy=0;" edge="1" parent="1" source="sYI8A0zLiOURxTtGvRJm-4" target="wHGBHEUg4wIxtBP_qHTT-17">
          <mxGeometry relative="1" as="geometry" />
        </mxCell>
        <mxCell id="C2EhszATPsO6lAKU5YwJ-25" style="edgeStyle=orthogonalEdgeStyle;rounded=0;orthogonalLoop=1;jettySize=auto;html=1;exitX=0.5;exitY=1;exitDx=0;exitDy=0;entryX=0.5;entryY=0;entryDx=0;entryDy=0;" edge="1" parent="1" source="sYI8A0zLiOURxTtGvRJm-4" target="wHGBHEUg4wIxtBP_qHTT-15">
          <mxGeometry relative="1" as="geometry" />
        </mxCell>
        <mxCell id="sYI8A0zLiOURxTtGvRJm-4" value="PlayGame" style="rounded=0;whiteSpace=wrap;html=1;fontSize=30;fixedWidth=0;resizable=1;resizeWidth=0;resizeHeight=0;imageWidth=25;imageHeight=25;" parent="1" vertex="1">
          <mxGeometry x="1320" y="-440" width="200" height="120" as="geometry" />
        </mxCell>
        <mxCell id="sYI8A0zLiOURxTtGvRJm-5" value="GetTarget" style="rounded=0;whiteSpace=wrap;html=1;fontSize=30;fillColor=#f8cecc;strokeColor=#b85450;fixedWidth=0;resizable=1;resizeWidth=0;resizeHeight=0;imageWidth=25;imageHeight=25;" parent="1" vertex="1">
          <mxGeometry x="120" y="-280" width="200" height="120" as="geometry" />
        </mxCell>
        <mxCell id="sYI8A0zLiOURxTtGvRJm-6" value="GetNumber" style="rounded=0;whiteSpace=wrap;html=1;fontSize=30;fillColor=#d5e8d4;strokeColor=#82b366;fixedWidth=0;resizable=1;resizeWidth=0;resizeHeight=0;imageWidth=25;imageHeight=25;" parent="1" vertex="1">
          <mxGeometry x="400" y="-280" width="200" height="120" as="geometry" />
        </mxCell>
        <mxCell id="C2EhszATPsO6lAKU5YwJ-26" style="edgeStyle=orthogonalEdgeStyle;rounded=0;orthogonalLoop=1;jettySize=auto;html=1;exitX=0.5;exitY=1;exitDx=0;exitDy=0;entryX=0.5;entryY=0;entryDx=0;entryDy=0;" edge="1" parent="1" source="sYI8A0zLiOURxTtGvRJm-7" target="sYI8A0zLiOURxTtGvRJm-9">
          <mxGeometry relative="1" as="geometry" />
        </mxCell>
        <mxCell id="C2EhszATPsO6lAKU5YwJ-27" style="edgeStyle=orthogonalEdgeStyle;rounded=0;orthogonalLoop=1;jettySize=auto;html=1;exitX=0.5;exitY=1;exitDx=0;exitDy=0;entryX=0.5;entryY=0;entryDx=0;entryDy=0;" edge="1" parent="1" source="sYI8A0zLiOURxTtGvRJm-7" target="sYI8A0zLiOURxTtGvRJm-8">
          <mxGeometry relative="1" as="geometry" />
        </mxCell>
        <mxCell id="C2EhszATPsO6lAKU5YwJ-28" style="edgeStyle=orthogonalEdgeStyle;rounded=0;orthogonalLoop=1;jettySize=auto;html=1;exitX=0.5;exitY=1;exitDx=0;exitDy=0;entryX=0.5;entryY=0;entryDx=0;entryDy=0;" edge="1" parent="1" source="sYI8A0zLiOURxTtGvRJm-7" target="sYI8A0zLiOURxTtGvRJm-10">
          <mxGeometry relative="1" as="geometry" />
        </mxCell>
        <mxCell id="sYI8A0zLiOURxTtGvRJm-7" value="DisplayState" style="rounded=0;whiteSpace=wrap;html=1;fontSize=30;fixedWidth=0;resizable=1;resizeWidth=0;resizeHeight=0;imageWidth=25;imageHeight=25;" parent="1" vertex="1">
          <mxGeometry x="960" y="-240" width="200" height="120" as="geometry" />
        </mxCell>
        <mxCell id="sYI8A0zLiOURxTtGvRJm-8" value="DisplayTargets" style="rounded=0;whiteSpace=wrap;html=1;fontSize=30;fixedWidth=0;resizable=1;resizeWidth=0;resizeHeight=0;imageWidth=25;imageHeight=25;" parent="1" vertex="1">
          <mxGeometry x="680" y="-40" width="200" height="120" as="geometry" />
        </mxCell>
        <mxCell id="sYI8A0zLiOURxTtGvRJm-9" value="DisplayNumbers&lt;div&gt;Allowed&lt;/div&gt;" style="rounded=0;whiteSpace=wrap;html=1;fontSize=30;fixedWidth=0;resizable=1;resizeWidth=0;resizeHeight=0;imageWidth=25;imageHeight=25;" parent="1" vertex="1">
          <mxGeometry x="960" y="-40" width="200" height="120" as="geometry" />
        </mxCell>
        <mxCell id="sYI8A0zLiOURxTtGvRJm-10" value="DisplayScore" style="rounded=0;whiteSpace=wrap;html=1;fontSize=30;fillColor=#fff2cc;strokeColor=#d6b656;fixedWidth=0;resizable=1;resizeWidth=0;resizeHeight=0;imageWidth=25;imageHeight=25;" parent="1" vertex="1">
          <mxGeometry x="1240" y="-40" width="200" height="120" as="geometry" />
        </mxCell>
        <mxCell id="sYI8A0zLiOURxTtGvRJm-12" value="CheckIfUser&lt;div&gt;InputValid&lt;/div&gt;" style="rounded=0;whiteSpace=wrap;html=1;fontSize=30;fixedWidth=0;resizable=1;resizeWidth=0;resizeHeight=0;imageWidth=25;imageHeight=25;" parent="1" vertex="1">
          <mxGeometry x="1560" y="-240" width="200" height="120" as="geometry" />
        </mxCell>
        <mxCell id="sYI8A0zLiOURxTtGvRJm-13" value="EvaluateRPN" style="rounded=0;whiteSpace=wrap;html=1;fontSize=30;fixedWidth=0;resizable=1;resizeWidth=0;resizeHeight=0;imageWidth=25;imageHeight=25;" parent="1" vertex="1">
          <mxGeometry x="1840" y="-240" width="200" height="120" as="geometry" />
        </mxCell>
        <mxCell id="C2EhszATPsO6lAKU5YwJ-17" style="edgeStyle=orthogonalEdgeStyle;rounded=0;orthogonalLoop=1;jettySize=auto;html=1;exitX=0.5;exitY=1;exitDx=0;exitDy=0;entryX=0.5;entryY=0;entryDx=0;entryDy=0;" edge="1" parent="1" source="wHGBHEUg4wIxtBP_qHTT-2" target="wHGBHEUg4wIxtBP_qHTT-4">
          <mxGeometry relative="1" as="geometry" />
        </mxCell>
        <mxCell id="wHGBHEUg4wIxtBP_qHTT-2" value="CheckNumbers&lt;div&gt;UsedAreAll&lt;/div&gt;&lt;div&gt;I&lt;span style=&quot;background-color: transparent; color: light-dark(rgb(0, 0, 0), rgb(255, 255, 255));&quot;&gt;nNumbersAllowed&lt;/span&gt;&lt;/div&gt;" style="rounded=0;whiteSpace=wrap;html=1;fontSize=30;fixedWidth=0;resizable=1;resizeWidth=0;resizeHeight=0;imageWidth=25;imageHeight=25;" parent="1" vertex="1">
          <mxGeometry x="2120" y="-240" width="200" height="120" as="geometry" />
        </mxCell>
        <mxCell id="wHGBHEUg4wIxtBP_qHTT-4" value="CheckValidNumber" style="rounded=0;whiteSpace=wrap;html=1;fontSize=30;fixedWidth=0;resizable=1;resizeWidth=0;resizeHeight=0;imageWidth=25;imageHeight=25;" parent="1" vertex="1">
          <mxGeometry x="2120" y="-80" width="200" height="120" as="geometry" />
        </mxCell>
        <mxCell id="C2EhszATPsO6lAKU5YwJ-18" style="edgeStyle=orthogonalEdgeStyle;rounded=0;orthogonalLoop=1;jettySize=auto;html=1;exitX=0.5;exitY=1;exitDx=0;exitDy=0;entryX=0.5;entryY=0;entryDx=0;entryDy=0;" edge="1" parent="1" source="wHGBHEUg4wIxtBP_qHTT-6" target="wHGBHEUg4wIxtBP_qHTT-8">
          <mxGeometry relative="1" as="geometry" />
        </mxCell>
        <mxCell id="wHGBHEUg4wIxtBP_qHTT-6" value="CheckIfUser&lt;div&gt;InputEvaluation&lt;br&gt;IsATarget&lt;/div&gt;" style="rounded=0;whiteSpace=wrap;html=1;fontSize=30;fixedWidth=0;resizable=1;resizeWidth=0;resizeHeight=0;imageWidth=25;imageHeight=25;" parent="1" vertex="1">
          <mxGeometry x="2400" y="-240" width="200" height="120" as="geometry" />
        </mxCell>
        <mxCell id="wHGBHEUg4wIxtBP_qHTT-8" value="EvaluateRPN" style="rounded=0;whiteSpace=wrap;html=1;fontSize=30;fixedWidth=0;resizable=1;resizeWidth=0;resizeHeight=0;imageWidth=25;imageHeight=25;" parent="1" vertex="1">
          <mxGeometry x="2400" y="-80" width="200" height="120" as="geometry" />
        </mxCell>
        <mxCell id="C2EhszATPsO6lAKU5YwJ-19" style="edgeStyle=orthogonalEdgeStyle;rounded=0;orthogonalLoop=1;jettySize=auto;html=1;exitX=0.5;exitY=1;exitDx=0;exitDy=0;entryX=0.5;entryY=0;entryDx=0;entryDy=0;" edge="1" parent="1" source="wHGBHEUg4wIxtBP_qHTT-9" target="wHGBHEUg4wIxtBP_qHTT-10">
          <mxGeometry relative="1" as="geometry" />
        </mxCell>
        <mxCell id="C2EhszATPsO6lAKU5YwJ-20" style="edgeStyle=orthogonalEdgeStyle;rounded=0;orthogonalLoop=1;jettySize=auto;html=1;exitX=0.5;exitY=1;exitDx=0;exitDy=0;entryX=0.5;entryY=0;entryDx=0;entryDy=0;" edge="1" parent="1" source="wHGBHEUg4wIxtBP_qHTT-9" target="wHGBHEUg4wIxtBP_qHTT-12">
          <mxGeometry relative="1" as="geometry" />
        </mxCell>
        <mxCell id="wHGBHEUg4wIxtBP_qHTT-9" value="Remove&lt;div&gt;NumbersUsed&lt;/div&gt;" style="rounded=0;whiteSpace=wrap;html=1;fontSize=30;fixedWidth=0;resizable=1;resizeWidth=0;resizeHeight=0;imageWidth=25;imageHeight=25;" parent="1" vertex="1">
          <mxGeometry x="2820" y="-240" width="200" height="120" as="geometry" />
        </mxCell>
        <mxCell id="C2EhszATPsO6lAKU5YwJ-29" style="edgeStyle=orthogonalEdgeStyle;rounded=0;orthogonalLoop=1;jettySize=auto;html=1;exitX=0.5;exitY=1;exitDx=0;exitDy=0;entryX=0.5;entryY=0;entryDx=0;entryDy=0;" edge="1" parent="1" source="wHGBHEUg4wIxtBP_qHTT-10" target="wHGBHEUg4wIxtBP_qHTT-11">
          <mxGeometry relative="1" as="geometry" />
        </mxCell>
        <mxCell id="wHGBHEUg4wIxtBP_qHTT-10" value="ConvertToRPN" style="rounded=0;whiteSpace=wrap;html=1;fontSize=30;fixedWidth=0;resizable=1;resizeWidth=0;resizeHeight=0;imageWidth=25;imageHeight=25;" parent="1" vertex="1">
          <mxGeometry x="2680" y="-40" width="200" height="120" as="geometry" />
        </mxCell>
        <mxCell id="wHGBHEUg4wIxtBP_qHTT-11" value="GetNumber&lt;div&gt;FromUser&lt;/div&gt;&lt;div&gt;Input&lt;/div&gt;" style="rounded=0;whiteSpace=wrap;html=1;fontSize=30;fixedWidth=0;resizable=1;resizeWidth=0;resizeHeight=0;imageWidth=25;imageHeight=25;" parent="1" vertex="1">
          <mxGeometry x="2680" y="120" width="200" height="120" as="geometry" />
        </mxCell>
        <mxCell id="wHGBHEUg4wIxtBP_qHTT-12" value="CheckValid&lt;div&gt;Number&lt;/div&gt;" style="rounded=0;whiteSpace=wrap;html=1;fontSize=30;fixedWidth=0;resizable=1;resizeWidth=0;resizeHeight=0;imageWidth=25;imageHeight=25;" parent="1" vertex="1">
          <mxGeometry x="2960" y="-40" width="200" height="120" as="geometry" />
        </mxCell>
        <mxCell id="C2EhszATPsO6lAKU5YwJ-21" style="edgeStyle=orthogonalEdgeStyle;rounded=0;orthogonalLoop=1;jettySize=auto;html=1;exitX=0.5;exitY=1;exitDx=0;exitDy=0;entryX=0.5;entryY=0;entryDx=0;entryDy=0;" edge="1" parent="1" source="wHGBHEUg4wIxtBP_qHTT-13" target="wHGBHEUg4wIxtBP_qHTT-14">
          <mxGeometry relative="1" as="geometry" />
        </mxCell>
        <mxCell id="wHGBHEUg4wIxtBP_qHTT-13" value="FillNumbers" style="rounded=0;whiteSpace=wrap;html=1;fontSize=30;fillColor=#dae8fc;strokeColor=#6c8ebf;fixedWidth=0;resizable=1;resizeWidth=0;resizeHeight=0;imageWidth=25;imageHeight=25;" parent="1" vertex="1">
          <mxGeometry x="3240" y="-240" width="200" height="120" as="geometry" />
        </mxCell>
        <mxCell id="wHGBHEUg4wIxtBP_qHTT-14" value="GetNumber" style="rounded=0;whiteSpace=wrap;html=1;fontSize=30;fillColor=#d5e8d4;strokeColor=#82b366;fixedWidth=0;resizable=1;resizeWidth=0;resizeHeight=0;imageWidth=25;imageHeight=25;" parent="1" vertex="1">
          <mxGeometry x="3240" y="-80" width="200" height="120" as="geometry" />
        </mxCell>
        <mxCell id="C2EhszATPsO6lAKU5YwJ-22" style="edgeStyle=orthogonalEdgeStyle;rounded=0;orthogonalLoop=1;jettySize=auto;html=1;exitX=0.5;exitY=1;exitDx=0;exitDy=0;" edge="1" parent="1" source="wHGBHEUg4wIxtBP_qHTT-15" target="wHGBHEUg4wIxtBP_qHTT-16">
          <mxGeometry relative="1" as="geometry" />
        </mxCell>
        <mxCell id="wHGBHEUg4wIxtBP_qHTT-15" value="UpdateTargets" style="rounded=0;whiteSpace=wrap;html=1;fontSize=30;fixedWidth=0;resizable=1;resizeWidth=0;resizeHeight=0;imageWidth=25;imageHeight=25;" parent="1" vertex="1">
          <mxGeometry x="3520" y="-240" width="200" height="120" as="geometry" />
        </mxCell>
        <mxCell id="wHGBHEUg4wIxtBP_qHTT-16" value="GetTarget" style="rounded=0;whiteSpace=wrap;html=1;fontSize=30;fillColor=#f8cecc;strokeColor=#b85450;fixedWidth=0;resizable=1;resizeWidth=0;resizeHeight=0;imageWidth=25;imageHeight=25;" parent="1" vertex="1">
          <mxGeometry x="3520" y="-80" width="200" height="120" as="geometry" />
        </mxCell>
        <mxCell id="wHGBHEUg4wIxtBP_qHTT-17" value="DisplayScore" style="rounded=0;whiteSpace=wrap;html=1;fontSize=30;fillColor=#fff2cc;strokeColor=#d6b656;fixedWidth=0;resizable=1;resizeWidth=0;resizeHeight=0;imageWidth=25;imageHeight=25;" parent="1" vertex="1">
          <mxGeometry x="3800" y="-240" width="200" height="120" as="geometry" />
        </mxCell>
      </root>
    </mxGraphModel>
  </diagram>
</mxfile>
